HIERARCHY
ROOT Hips
{
	OFFSET 0.00000 0.00000 0.00000
	CHANNELS 6 Xposition Yposition Zposition Zrotation Yrotation Xrotation 
	JOINT LHipJoint
	{
		OFFSET 0 0 0
		CHANNELS 3 Zrotation Yrotation Xrotation
		JOINT LeftUpLeg
		{
			OFFSET 1.40001 -1.72600 0.84541
			CHANNELS 3 Zrotation Yrotation Xrotation
			JOINT LeftLeg
			{
				OFFSET 2.34760 -6.44999 0.00000
				CHANNELS 3 Zrotation Yrotation Xrotation
				JOINT LeftFoot
				{
					OFFSET 2.50650 -6.88655 0.00000
					CHANNELS 3 Zrotation Yrotation Xrotation
					JOINT LeftToeBase
					{
						OFFSET 0.12464 -0.34243 1.95563
						CHANNELS 3 Zrotation Yrotation Xrotation
						End Site
						{
							OFFSET 0.00000 -0.00000 1.00479
						}
					}
				}
			}
		}
	}
	JOINT RHipJoint
	{
		OFFSET 0 0 0
		CHANNELS 3 Zrotation Yrotation Xrotation
		JOINT RightUpLeg
		{
			OFFSET -1.40958 -1.72600 0.84541
			CHANNELS 3 Zrotation Yrotation Xrotation
			JOINT RightLeg
			{
				OFFSET -2.37905 -6.53640 0.00000
				CHANNELS 3 Zrotation Yrotation Xrotation
				JOINT RightFoot
				{
					OFFSET -2.50470 -6.88163 0.00000
					CHANNELS 3 Zrotation Yrotation Xrotation
					JOINT RightToeBase
					{
						OFFSET -0.12236 -0.33619 1.81785
						CHANNELS 3 Zrotation Yrotation Xrotation
						End Site
						{
							OFFSET -0.00000 -0.00000 0.93746
						}
					}
				}
			}
		}
	}
	JOINT LowerBack
	{
		OFFSET 0 0 0
		CHANNELS 3 Zrotation Yrotation Xrotation
		JOINT Spine
		{
			OFFSET -0.02146 1.96915 0.26424
			CHANNELS 3 Zrotation Yrotation Xrotation
			JOINT Spine1
			{
				OFFSET 0.01522 1.99484 0.02086
				CHANNELS 3 Zrotation Yrotation Xrotation
				JOINT Neck
				{
					OFFSET 0 0 0
					CHANNELS 3 Zrotation Yrotation Xrotation
					JOINT Neck1
					{
						OFFSET -0.02954 1.71757 0.03505
						CHANNELS 3 Zrotation Yrotation Xrotation
						JOINT Head
						{
							OFFSET 0.04170 1.65781 -0.11024
							CHANNELS 3 Zrotation Yrotation Xrotation
							End Site
							{
								OFFSET 0.01600 1.81465 -0.05144
							}
						}
					}
				}
				JOINT LeftShoulder
				{
					OFFSET 0 0 0
					CHANNELS 3 Zrotation Yrotation Xrotation
					JOINT LeftArm
					{
						OFFSET 2.77679 1.60868 -0.78649
						CHANNELS 3 Zrotation Yrotation Xrotation
						JOINT LeftForeArm
						{
							OFFSET 4.62672 -0.00000 -0.00000
							CHANNELS 3 Zrotation Yrotation Xrotation
							JOINT LeftHand
							{
								OFFSET 3.11018 -0.00000 -0.00000
								CHANNELS 3 Zrotation Yrotation Xrotation
								JOINT LeftFingerBase
								{
									OFFSET 0 0 0
									CHANNELS 3 Zrotation Yrotation Xrotation
									JOINT LeftHandIndex1
									{
										OFFSET 0.74383 -0.00000 -0.00000
										CHANNELS 3 Zrotation Yrotation Xrotation
										End Site
										{
											OFFSET 0.59970 -0.00000 -0.00000
										}
									}
								}
								JOINT LThumb
								{
									OFFSET 0 0 0
									CHANNELS 3 Zrotation Yrotation Xrotation
									End Site
									{
										OFFSET 0.60885 -0.00000 0.60885
									}
								}
							}
						}
					}
				}
				JOINT RightShoulder
				{
					OFFSET 0 0 0
					CHANNELS 3 Zrotation Yrotation Xrotation
					JOINT RightArm
					{
						OFFSET -2.73247 1.63658 -0.74740
						CHANNELS 3 Zrotation Yrotation Xrotation
						JOINT RightForeArm
						{
							OFFSET -4.55919 -0.00000 -0.00000
							CHANNELS 3 Zrotation Yrotation Xrotation
							JOINT RightHand
							{
								OFFSET -3.22748 -0.00000 -0.00000
								CHANNELS 3 Zrotation Yrotation Xrotation
								JOINT RightFingerBase
								{
									OFFSET 0 0 0
									CHANNELS 3 Zrotation Yrotation Xrotation
									JOINT RightHandIndex1
									{
										OFFSET -0.70088 -0.00000 -0.00000
										CHANNELS 3 Zrotation Yrotation Xrotation
										End Site
										{
											OFFSET -0.56507 -0.00000 -0.00000
										}
									}
								}
								JOINT RThumb
								{
									OFFSET 0 0 0
									CHANNELS 3 Zrotation Yrotation Xrotation
									End Site
									{
										OFFSET -0.57370 -0.00000 0.57370
									}
								}
							}
						}
					}
				}
			}
		}
	}
}
MOTION
Frames: 13
Frame Time: .0083333
-0.0878 16.3314 -0.2535 2.1792 3.9624 15.4177 0.0000 0.0000 0.0000 -24.7181 1.5781 -15.2787 2.1341 9.1399 26.2340 1.0731 -19.2601 -21.4491 0.0175 -0.8548 -2.3495 0.0000 0.0000 0.0000 15.0736 9.2196 -47.9269 -3.9549 -12.1002 36.0872 -0.4446 -1.5216 -13.2394 -0.6182 5.0318 -13.9993 -4.4957 -2.1822 -12.6946 -0.0277 -2.3453 -4.9370 2.1657 -1.1296 2.1017 -2.3015 -1.8478 -3.9057 4.5534 -2.7975 10.7244 1.8103 -1.2637 4.3562 0.0000 -0.0000 0.0000 -82.9217 -11.0567 36.1899 19.5697 -30.1205 -5.3137 -0.0000 0.0000 -3.8051 23.4110 -16.0917 -6.8432 -7.1250 0.0000 -0.0000 -2.8831 12.5454 2.1908 0.0000 -0.0000 0.0000 92.3576 -14.9418 -58.6278 -4.6747 8.0348 -0.3285 0.0000 0.0000 67.9188 -17.0489 -36.5798 10.3567 7.1250 -0.0000 -0.0000 22.5571 -66.4903 -11.9441
-0.0916 16.2984 -0.0383 2.2178 4.6665 15.3670 0.0000 0.0000 0.0000 -24.5018 2.0148 -13.9495 1.9914 8.8481 25.3212 1.0306 -19.8142 -21.4078 0.0269 -1.0587 -2.9103 0.0000 0.0000 0.0000 15.2618 8.7443 -47.8375 -3.3386 -11.2239 33.0389 -0.4363 -1.5347 -13.1291 -0.9465 6.1960 -17.3541 -4.4450 -2.3194 -12.6877 -0.0088 -2.5297 -4.8123 2.1270 -1.2259 2.2409 -2.1047 -1.9493 -3.8661 4.3851 -2.9227 10.4730 1.7081 -1.3277 4.2535 0.0000 0.0000 0.0000 -82.5424 -12.2825 37.4479 20.3197 -31.0256 -5.6952 -0.0000 0.0000 -5.1148 24.1996 -16.3510 -7.2106 -7.1250 0.0000 -0.0000 -2.3765 12.1610 1.8241 0.0000 0.0000 0.0000 92.4922 -15.4012 -64.9894 -4.8187 8.2783 -0.3489 0.0000 0.0000 72.8467 -17.5255 -36.0763 10.5341 7.1250 -0.0000 -0.0000 21.4255 -66.1729 -11.1656
-0.0716 16.2544 0.2296 1.8642 4.0103 14.8977 0.0000 0.0000 0.0000 -24.2702 3.3944 -12.2558 1.8568 8.5612 24.4321 1.1428 -19.6700 -22.0589 0.0511 -1.4590 -4.0128 0.0000 0.0000 0.0000 15.9113 8.7997 -47.1799 -2.7839 -10.3367 30.0741 -0.4707 -0.2513 -13.0554 -0.9483 6.2018 -17.3710 -3.8928 -1.9451 -13.2552 0.0115 -2.0676 -4.4386 1.8850 -1.0154 2.8911 -2.1152 -2.0244 -3.6209 4.3447 -3.0100 10.1676 1.6904 -1.3783 4.0977 -0.0000 -0.0000 0.0000 -82.3030 -13.2504 38.0633 21.3356 -32.2180 -6.2279 -0.0000 0.0000 -4.7391 23.6190 -15.6442 -6.7252 -7.1250 0.0000 -0.0000 -2.7121 12.9985 2.0350 -0.0000 -0.0000 0.0000 92.5494 -16.1565 -71.3006 -4.9668 8.5284 -0.3706 0.0000 0.0000 77.5123 -18.3021 -34.8261 10.6967 7.1250 -0.0000 -0.0000 19.1881 -65.2432 -9.5500
-0.1040 16.2319 0.4018 2.2965 5.5062 15.4730 0.0000 0.0000 0.0000 -24.1420 3.1548 -11.7653 1.7381 8.2979 23.6225 0.9944 -20.7735 -21.5992 0.0740 -1.7552 -4.8297 0.0000 0.0000 0.0000 15.1738 8.6195 -47.8193 -2.2909 -9.4474 27.2050 -0.4476 -0.4014 -12.7904 -0.7163 5.4084 -15.0771 -4.5471 -2.4953 -13.0312 0.1389 -2.7313 -4.6752 2.2923 -1.3328 2.5956 -2.2063 -2.0669 -3.6281 4.3650 -3.0537 9.9309 1.7100 -1.4043 4.0191 -0.0000 -0.0000 0.0000 -82.0944 -14.2203 38.6804 22.1960 -33.1978 -6.6928 -0.0000 0.0000 -4.8265 22.8061 -16.2211 -6.6993 -7.1250 0.0000 -0.0000 -3.2960 12.4859 2.5097 -0.0000 -0.0000 0.0000 92.6134 -17.0897 -77.6088 -5.0760 8.7126 -0.3869 0.0000 0.0000 81.9371 -19.4629 -33.2085 10.9540 7.1250 -0.0000 -0.0000 16.3205 -64.0369 -7.6279
-0.1079 16.2074 0.6216 2.5484 5.8349 15.5852 0.0000 0.0000 0.0000 -24.2090 3.5633 -10.5738 1.5979 7.9728 22.6316 0.9689 -20.9577 -21.5231 0.1284 -2.3096 -6.3621 0.0000 0.0000 0.0000 14.7674 8.6761 -47.9021 -1.8814 -8.6146 24.5969 -0.4450 0.4618 -12.4493 -0.5823 4.8860 -13.5838 -4.7417 -2.5662 -13.0734 0.1218 -2.7971 -4.6768 2.3717 -1.3650 2.6288 -2.2921 -2.1132 -3.7224 4.4366 -3.1100 9.7773 1.7456 -1.4323 3.9894 -0.0000 -0.0000 0.0000 -81.8814 -15.1131 39.3029 23.0352 -34.1273 -7.1581 -0.0000 0.0000 -5.2584 22.2945 -17.0341 -6.8490 -7.1250 0.0000 -0.0000 -3.6918 11.6874 2.8735 -0.0000 -0.0000 0.0000 92.6971 -18.0045 -77.5954 -5.1015 8.7556 -0.3908 0.0000 0.0000 80.3359 -20.4602 -32.4259 11.3130 7.1250 -0.0000 -0.0000 14.5096 -63.5508 -6.5981
-0.1090 16.1919 0.8407 2.8274 6.2365 15.8926 0.0000 0.0000 0.0000 -24.2776 3.5244 -9.4854 1.4762 7.6771 21.7374 0.8425 -21.3115 -20.8935 0.1024 -2.0637 -5.6818 0.0000 0.0000 0.0000 14.5104 8.4395 -48.2945 -1.5432 -7.8415 22.2337 -0.4352 1.5452 -12.0205 -0.5421 4.7172 -13.1038 -4.9297 -2.7240 -13.2652 0.1198 -2.9719 -4.7654 2.4420 -1.4496 2.6608 -2.2908 -2.1249 -3.7317 4.4237 -3.1238 9.7600 1.7402 -1.4396 3.9853 0.0000 0.0000 0.0000 -81.7063 -15.5803 39.6240 24.2258 -35.4021 -7.8370 -0.0000 0.0000 -5.6765 22.2563 -17.0454 -6.8405 -7.1250 0.0000 -0.0000 -3.7179 11.6805 2.8944 0.0000 0.0000 0.0000 92.7601 -18.9736 -76.5370 -5.1068 8.7645 -0.3916 0.0000 0.0000 78.1785 -20.5950 -33.0182 11.5720 7.1250 -0.0000 -0.0000 14.8450 -64.1605 -6.9653
-0.1078 16.1826 1.0620 3.0740 6.9052 16.1765 0.0000 0.0000 0.0000 -24.2153 3.2375 -8.2911 1.3638 7.3916 20.8807 0.6612 -21.7622 -19.9589 0.0550 -1.5136 -4.1632 0.0000 0.0000 0.0000 14.5043 7.7445 -48.6816 -1.2664 -7.1330 20.1099 -0.4111 2.7855 -11.4727 -0.5089 4.5727 -12.6936 -4.9761 -2.9775 -13.4256 0.1195 -3.2912 -4.8066 2.4097 -1.6082 2.7315 -2.0977 -2.1178 -3.9461 4.2285 -3.1082 9.7976 1.6389 -1.4302 4.0302 0.0000 -0.0000 0.0000 -81.5484 -16.1811 39.6352 25.3661 -36.5759 -8.5071 -0.0000 0.0000 -5.9715 22.0916 -16.9652 -6.7543 -7.1250 0.0000 -0.0000 -3.8215 11.7873 2.9670 0.0000 -0.0000 0.0000 92.9210 -19.9708 -73.0728 -5.1732 8.8765 -0.4018 0.0000 0.0000 73.8010 -19.6949 -35.1480 11.6439 7.1250 -0.0000 -0.0000 17.8938 -65.9387 -9.1725
-0.1126 16.1589 1.2803 3.0860 7.5136 16.4817 0.0000 0.0000 0.0000 -23.9056 2.9547 -7.1715 1.2646 7.1283 20.0960 0.7778 -21.3336 -20.4906 0.1408 -2.4186 -6.6641 0.0000 0.0000 0.0000 14.9402 7.0823 -49.2229 -1.0540 -6.5280 18.3243 -0.3736 3.9498 -10.8686 -0.7608 5.5705 -15.5432 -4.8266 -3.1526 -13.6416 0.1865 -3.5312 -4.8328 2.3468 -1.7288 2.8357 -1.9372 -2.1455 -4.2642 3.9967 -3.1322 9.8126 1.5285 -1.4424 4.0891 0.0000 -0.0000 0.0000 -81.4383 -16.9158 39.6149 26.3469 -37.5492 -9.0982 -0.0000 0.0000 -6.1961 21.9497 -17.1060 -6.7603 -7.1250 0.0000 -0.0000 -3.9250 11.6567 3.0584 0.0000 -0.0000 0.0000 93.0448 -20.6526 -71.7511 -5.2347 8.9799 -0.4113 0.0000 0.0000 71.5623 -18.9448 -36.4303 11.5212 7.1250 -0.0000 -0.0000 20.1759 -66.9107 -10.8299
-0.1231 16.1211 1.5013 3.0402 7.8918 16.7652 0.0000 0.0000 0.0000 -23.5893 2.8459 -6.1238 1.1741 6.8775 19.3530 0.8707 -20.5333 -20.7013 0.3527 -3.8157 -10.5588 0.0000 0.0000 0.0000 15.4495 6.7031 -49.8280 -0.9053 -6.0634 16.9685 -0.3443 5.0358 -10.4965 -1.1699 6.8659 -19.3186 -4.7149 -3.2516 -13.9946 0.2805 -3.6589 -4.8264 2.3437 -1.7956 3.0421 -1.8638 -2.1288 -4.4054 3.8610 -3.0981 9.7413 1.4699 -1.4279 4.0850 -0.0000 0.0000 0.0000 -81.3252 -17.3782 39.7064 27.4841 -38.6369 -9.7999 -0.0000 0.0000 -6.5691 22.0360 -17.2422 -6.8414 -7.1250 0.0000 -0.0000 -3.8770 11.5009 3.0333 -0.0000 0.0000 0.0000 93.0181 -20.9201 -74.2172 -5.2327 8.9766 -0.4110 0.0000 0.0000 73.2301 -18.5922 -36.3560 11.2774 7.1250 -0.0000 -0.0000 20.5047 -66.7388 -10.9324
-0.1223 16.0956 1.7323 3.1756 8.3232 16.9029 0.0000 0.0000 0.0000 -23.4469 2.8456 -4.9876 1.0975 6.6570 18.7032 0.9921 -19.6885 -21.1058 0.8310 -5.8157 -16.2507 0.0000 0.0000 0.0000 15.6153 6.1923 -50.1982 -0.8165 -5.7659 16.1066 -0.3097 6.7666 -10.2954 -0.7690 5.5996 -15.6270 -4.5704 -3.3936 -14.2360 0.2773 -3.8517 -4.8338 2.2137 -1.8932 3.1700 -1.7968 -2.0576 -4.1086 3.7720 -2.9898 9.3900 1.4328 -1.3816 3.8936 0.0000 -0.0000 0.0000 -81.1514 -17.5379 39.7530 28.7003 -39.7530 -10.5685 -0.0000 0.0000 -7.1658 22.3113 -17.5024 -7.0355 -7.1250 0.0000 -0.0000 -3.7136 11.1881 2.9288 0.0000 -0.0000 0.0000 92.9540 -21.3288 -76.2465 -5.2351 8.9806 -0.4114 0.0000 0.0000 74.7601 -18.2094 -35.6220 10.8465 7.1250 -0.0000 -0.0000 20.1311 -65.9537 -10.3653
-0.1110 16.0803 1.9653 3.1461 8.7813 16.8205 0.0000 0.0000 0.0000 -23.1137 2.7771 -3.6313 1.0405 6.4874 18.2053 0.7631 -20.3096 -19.8884 0.5821 -4.8853 -13.5817 0.0000 0.0000 0.0000 16.0269 5.5036 -50.3088 -0.7683 -5.5970 15.6196 -0.2490 8.6834 -10.0507 -0.3545 3.8251 -10.5852 -4.1132 -3.5154 -14.1258 0.3208 -4.0833 -4.8735 1.9697 -2.0071 3.0603 -1.7788 -2.0073 -3.7806 3.5750 -2.8959 9.0156 1.3678 -1.3490 3.6887 -0.0000 -0.0000 0.0000 -81.0419 -17.6529 39.6419 29.7536 -40.6813 -11.2487 -0.0000 0.0000 -7.9182 22.7430 -17.6961 -7.2615 -7.1250 0.0000 -0.0000 -3.4435 10.9229 2.7337 -0.0000 -0.0000 0.0000 92.8430 -22.1238 -74.8213 -5.2331 8.9773 -0.4111 0.0000 0.0000 73.0088 -17.7978 -35.0341 10.4417 7.1250 -0.0000 -0.0000 19.9817 -65.2948 -9.9830
-0.1204 16.0468 2.1999 3.7295 8.3988 16.9739 0.0000 0.0000 0.0000 -23.6595 2.5870 -2.4783 0.9945 6.3468 17.7939 0.6455 -20.0415 -18.9580 0.5416 -4.7150 -13.0973 0.0000 0.0000 0.0000 14.8889 6.3999 -50.1444 -0.7601 -5.5678 15.5354 -0.2481 8.7516 -10.0650 -0.3044 3.5471 -9.8059 -4.7174 -3.5338 -14.0512 0.2548 -4.0293 -4.9789 2.2556 -1.9748 2.9384 -1.6951 -1.9680 -3.8367 3.2716 -2.8187 8.9428 1.2545 -1.3202 3.6625 0.0000 0.0000 0.0000 -81.0049 -17.6447 39.5079 30.8279 -41.5925 -11.9554 -0.0000 0.0000 -8.4536 23.1105 -17.7847 -7.4265 -7.1250 0.0000 -0.0000 -3.2087 10.7769 2.5562 0.0000 0.0000 0.0000 92.6886 -22.8378 -73.6426 -5.2193 8.9539 -0.4089 0.0000 0.0000 71.4995 -17.1653 -34.6840 9.9692 7.1250 -0.0000 -0.0000 20.3440 -64.7956 -9.9363
-0.1156 16.0183 2.4371 3.5295 8.3628 17.0452 0.0000 0.0000 0.0000 -23.3367 2.2554 -1.4690 0.9709 6.2730 17.5786 0.5398 -19.8757 -18.1318 0.6763 -5.2586 -14.6477 0.0000 0.0000 0.0000 15.0264 6.7728 -50.0954 -0.7821 -5.6459 15.7603 -0.2489 9.0783 -10.2036 -0.3606 3.8579 -10.6773 -4.2348 -3.4767 -14.1727 0.3293 -4.0164 -5.0089 2.0604 -1.9699 2.9466 -1.5711 -1.8944 -3.9792 3.0257 -2.7051 8.9463 1.1548 -1.2685 3.6799 0.0000 0.0000 0.0000 -80.9060 -17.4991 39.3510 31.9977 -42.5453 -12.7392 -0.0000 0.0000 -8.7149 23.4873 -18.2013 -7.7297 -7.1250 0.0000 -0.0000 -2.9954 10.2778 2.4163 0.0000 0.0000 0.0000 92.5294 -23.1743 -74.5548 -5.2063 8.9322 -0.4069 0.0000 0.0000 72.2480 -16.5852 -34.3315 9.5350 7.1250 -0.0000 -0.0000 20.6450 -64.3118 -9.8576
